<svg width="132" height="193" viewBox="0 0 132 193" fill="none" xmlns="http://www.w3.org/2000/svg">
<path fill-rule="evenodd" clip-rule="evenodd" d="M119.178 62.1225C119.071 66.8121 118.671 71.198 117.964 75.2759C126.652 79.8626 130.999 84.5534 131 89.3497C131 90.8797 130.444 92.3052 129.33 93.6284C127.821 95.6706 125.897 96.6857 123.573 96.6857C120.539 96.6857 117.156 95.0637 113.414 91.7958C111.998 95.0637 108.558 100.824 103.103 109.075C98.9571 115.402 96.3311 121.521 95.222 127.436C94.6134 134.773 98.4544 141.958 106.742 149C75.106 145.329 50.3855 134.672 32.6002 117.032C25.2211 109.593 19.5025 101.072 15.4622 91.4899C15.3634 91.1812 15.2625 90.9268 15.1637 90.7227C12.3297 92.6631 9.75232 93.6284 7.42873 93.6284C5.10404 93.6284 3.1336 92.6631 1.51686 90.7227C0.502162 89.2961 0 87.8755 0 86.4456C0 82.1599 3.78805 77.7745 11.3674 73.2895C10.8669 69.4158 10.6136 65.6383 10.6136 61.972C10.6136 42.6947 16.7324 27.0985 28.9606 15.1649C40.3815 3.94968 53.7248 -1.04913 68.9868 0.182655C84.1542 1.3028 96.2307 6.80615 105.226 16.696C115.129 27.6047 119.783 42.75 119.178 62.1225ZM31.0255 36.8805C31.0255 40.1222 32.1864 42.9048 34.486 45.2168C36.7867 47.525 39.5568 48.6736 42.8039 48.6736C46.2039 48.6736 49.0645 47.525 51.3652 45.2168C53.6752 42.9048 54.8258 40.1222 54.8258 36.8805C54.8258 33.6372 53.6752 30.8497 51.3652 28.5579C49.064 26.2389 46.2039 25.0749 42.8039 25.0749C39.5568 25.0749 36.7861 26.2389 34.486 28.5579C32.1864 30.8497 31.0255 33.6372 31.0255 36.8805ZM61.6639 85.3151C60.0614 87.6216 58.1406 88.7702 55.9 88.7702C53.6511 88.7702 51.7293 87.6211 50.1349 85.3151C48.5395 83.013 47.7453 80.1439 47.7453 76.7195C47.7453 73.4788 48.5395 70.6952 50.1349 68.3821C51.7293 66.0761 53.6511 64.9264 55.9 64.9264C58.1406 64.9264 60.0614 66.0761 61.6639 68.3821C63.2572 70.6952 64.0552 73.4788 64.0552 76.7195C64.0552 80.1434 63.2572 83.013 61.6639 85.3151ZM84.8103 54.3652C88.0438 54.3652 90.8134 53.216 93.1244 50.9095C95.424 48.6068 96.574 45.7372 96.5735 42.3138C96.5735 39.0721 95.424 36.2896 93.1244 33.9765C90.8134 31.6689 88.0444 30.5208 84.8103 30.5208C81.5654 30.5208 78.7926 31.6683 76.493 33.9765C74.1945 36.2896 73.0461 39.0721 73.0461 42.3138C73.0461 45.7378 74.194 48.6068 76.493 50.9095C78.7926 53.216 81.5654 54.3652 84.8103 54.3652Z" fill="#6C6368"/>
<path d="M46.8452 34.1285C45.5865 34.1285 44.512 34.5695 43.6207 35.4565C42.7299 36.344 42.2848 37.4113 42.2848 38.6582C42.2848 39.9736 42.7305 41.0743 43.6207 41.9591C44.512 42.845 45.5865 43.2849 46.8452 43.2849C48.0973 43.2849 49.1723 42.845 50.0669 41.9591C50.9599 41.0743 51.405 39.9736 51.405 38.6582C51.405 37.4113 50.9599 36.3435 50.0669 35.4565C49.1728 34.5695 48.0973 34.1285 46.8452 34.1285Z" fill="#6C6368"/>
<path d="M80.0095 37.4581C78.7525 37.4581 77.677 37.8997 76.7852 38.7849C75.8944 39.6734 75.4493 40.7411 75.4493 41.9857C75.4493 43.3009 75.8944 44.402 76.7852 45.2856C77.677 46.173 78.752 46.6146 80.0095 46.6146C81.2637 46.6146 82.3375 46.1725 83.2316 45.2856C84.1251 44.402 84.5696 43.3004 84.5696 41.9857C84.5696 40.7411 84.1251 39.6729 83.2316 38.7849C82.3375 37.8991 81.2642 37.4581 80.0095 37.4581Z" fill="#6C6368"/>
<ellipse opacity="0.401853" cx="66" cy="184.5" rx="66" ry="8.5" fill="#D8D8D8"/>
</svg>
