<svg width="31" height="31" viewBox="0 0 31 31" fill="none" xmlns="http://www.w3.org/2000/svg">
<rect width="31" height="31" rx="4" fill="white"/>
<path d="M15.5 25.15C15.19 25.15 14.89 25.11 14.64 25.02C10.82 23.71 4.75 19.06 4.75 12.19C4.75 8.68998 7.58 5.84998 11.06 5.84998C12.75 5.84998 14.33 6.50998 15.5 7.68998C16.67 6.50998 18.25 5.84998 19.94 5.84998C23.42 5.84998 26.25 8.69998 26.25 12.19C26.25 19.07 20.18 23.71 16.36 25.02C16.11 25.11 15.81 25.15 15.5 25.15ZM11.06 7.34998C8.41 7.34998 6.25 9.51998 6.25 12.19C6.25 19.02 12.82 22.82 15.13 23.61C15.31 23.67 15.7 23.67 15.88 23.61C18.18 22.82 24.76 19.03 24.76 12.19C24.76 9.51998 22.6 7.34998 19.95 7.34998C18.43 7.34998 17.02 8.05998 16.11 9.28998C15.83 9.66998 15.19 9.66998 14.91 9.28998C13.98 8.04998 12.58 7.34998 11.06 7.34998Z" fill="#1F1F1F"/>
</svg>
