<svg width="31" height="31" viewBox="0 0 31 31" fill="none" xmlns="http://www.w3.org/2000/svg">
<rect width="31" height="31" rx="4" fill="white"/>
<path fill-rule="evenodd" clip-rule="evenodd" d="M24.75 22.5C24.75 21.2574 23.7426 20.25 22.5 20.25C21.2574 20.25 20.25 21.2574 20.25 22.5C20.25 23.7426 21.2574 24.75 22.5 24.75C23.7426 24.75 24.75 23.7426 24.75 22.5ZM22.5 18.75C24.5711 18.75 26.25 20.4289 26.25 22.5C26.25 24.5711 24.5711 26.25 22.5 26.25C20.4289 26.25 18.75 24.5711 18.75 22.5C18.75 22.0741 18.821 21.6647 18.9519 21.2831L11.5549 17.6754C10.875 18.6285 9.76005 19.25 8.5 19.25C6.42893 19.25 4.75 17.5711 4.75 15.5C4.75 13.4289 6.42893 11.75 8.5 11.75C9.51477 11.75 10.4354 12.1531 11.1105 12.8078C11.1238 12.8003 11.1374 12.7932 11.1513 12.7864L18.7915 9.06002C18.7642 8.87732 18.75 8.69032 18.75 8.5C18.75 6.42893 20.4289 4.75 22.5 4.75C24.5711 4.75 26.25 6.42893 26.25 8.5C26.25 10.5711 24.5711 12.25 22.5 12.25C21.1537 12.25 19.9732 11.5406 19.3117 10.4752L11.9633 14.0593C12.148 14.5029 12.25 14.9895 12.25 15.5C12.25 15.7758 12.2202 16.0446 12.1637 16.3034L19.7164 19.9871C20.4027 19.2274 21.3956 18.75 22.5 18.75ZM8.5 13.25C9.74264 13.25 10.75 14.2574 10.75 15.5C10.75 16.7426 9.74264 17.75 8.5 17.75C7.25736 17.75 6.25 16.7426 6.25 15.5C6.25 14.2574 7.25736 13.25 8.5 13.25ZM22.5 6.25C23.7426 6.25 24.75 7.25736 24.75 8.5C24.75 9.74264 23.7426 10.75 22.5 10.75C21.2574 10.75 20.25 9.74264 20.25 8.5C20.25 7.25736 21.2574 6.25 22.5 6.25Z" fill="#1F1F1F"/>
</svg>
